<?xml version="1.0" encoding="utf-8"?>
<!-- Generator: Adobe Illustrator 21.1.0, SVG Export Plug-In . SVG Version: 6.00 Build 0)  -->
<svg version="1.1" id="Слой_1" xmlns="http://www.w3.org/2000/svg" xmlns:xlink="http://www.w3.org/1999/xlink" x="0px" y="0px"
	 viewBox="0 0 29 23" style="enable-background:new 0 0 29 23;" xml:space="preserve">
<style type="text/css">
	.st0{opacity:0.6;}
	.st1{fill:#FFFFFF;}
</style>
<g class="st0">
	<path class="st1" d="M28.6,14.7L24.8,2.6c-0.5-1.8-2.4-2.8-4.2-2.2c-0.4,0.1-0.7,0.6-0.5,1c0.1,0.4,0.6,0.7,1,0.5
		C22,1.6,22.9,2.1,23.2,3v0l2.7,8.7C25.1,11.2,24.1,11,23,11c-3.1,0-5.6,2.3-5.9,5.3h-5c-0.4-2.9-2.9-5.2-5.9-5.2
		c-1.1,0-2.1,0.3-2.9,0.8L6,3.1v0c0.3-0.9,1.3-1.5,2.2-1.2c0.4,0.1,0.9-0.1,1-0.5c0.1-0.4-0.1-0.9-0.5-1C6.9-0.2,5,0.8,4.5,2.6
		L0.7,14.7c0,0,0,0.1,0,0.1c-0.3,0.7-0.4,1.4-0.4,2.2c0,3.3,2.7,6,6,6c3,0,5.5-2.3,5.9-5.2h5c0.4,2.9,2.9,5.1,5.9,5.1
		c3.3,0,6-2.7,6-6C29,16.1,28.9,15.4,28.6,14.7L28.6,14.7z M6.2,21.4c-2.4,0-4.4-2-4.4-4.4c0-2.4,2-4.4,4.4-4.4c2.4,0,4.4,2,4.4,4.4
		C10.6,19.4,8.6,21.4,6.2,21.4L6.2,21.4z M23,21.3c-2.4,0-4.4-2-4.4-4.4c0-2.4,2-4.4,4.4-4.4c2.4,0,4.4,2,4.4,4.4
		C27.4,19.3,25.5,21.3,23,21.3L23,21.3z M23,21.3"/>
</g>
</svg>
